<?xml version="1.0" standalone="no"?>
<!DOCTYPE svg PUBLIC "-//W3C//DTD SVG 20010904//EN"
 "http://www.w3.org/TR/2001/REC-SVG-20010904/DTD/svg10.dtd">
<svg version="1.0" xmlns="http://www.w3.org/2000/svg"
 width="1024.000000pt" height="1024.000000pt" viewBox="0 0 1024.000000 1024.000000"
 preserveAspectRatio="xMidYMid meet">

<g transform="translate(0.000000,1024.000000) scale(0.100000,-0.100000)"
fill="#000000" stroke="none">
<path d="M2105 9265 c-306 -68 -531 -277 -622 -580 -17 -57 -18 -222 -20
-3533 -3 -3786 -7 -3528 53 -3678 42 -106 90 -180 172 -266 97 -102 196 -167
320 -209 l97 -34 2495 0 2495 0 80 27 c111 38 215 102 317 194 47 44 316 309
596 589 566 566 556 554 572 698 13 113 12 6040 -1 6131 -44 310 -296 580
-614 657 -78 18 -150 19 -2980 18 -2370 0 -2911 -3 -2960 -14z m5926 -268
c182 -62 317 -204 364 -384 13 -50 15 -433 15 -3065 l0 -3007 -713 -3 c-683
-3 -714 -4 -760 -23 -84 -34 -138 -84 -177 -159 l-35 -69 -3 -533 -3 -534
-2227 -2 c-1225 -2 -2261 0 -2303 4 -99 9 -169 37 -249 97 -102 77 -174 185
-205 307 -13 53 -15 446 -13 3515 l3 3454 28 69 c66 166 190 283 357 337 52
17 203 18 2955 18 l2900 0 66 -22z m-291 -7192 c-261 -262 -497 -491 -525
-510 -59 -41 -153 -75 -207 -75 l-38 0 0 483 c0 490 4 547 38 566 11 7 235 11
612 11 l595 0 -475 -475z"/>
<path d="M6414 8575 c-91 -16 -134 -30 -208 -68 -284 -142 -438 -438 -406
-781 25 -260 178 -494 395 -604 117 -58 196 -76 340 -76 142 -1 196 11 318 66
l67 31 80 -78 c96 -93 106 -93 192 -7 83 83 84 95 3 182 -36 40 -65 75 -63 79
2 3 24 49 51 101 66 132 87 224 87 374 0 135 -15 221 -56 322 -101 252 -295
414 -549 459 -103 18 -154 18 -251 0z m281 -306 c28 -13 77 -50 110 -84 102
-102 155 -231 155 -380 0 -73 -21 -178 -43 -221 -13 -24 -13 -24 -93 56 -103
102 -117 104 -203 24 -85 -79 -84 -95 14 -203 41 -46 75 -87 75 -91 0 -4 -26
-15 -58 -24 -267 -75 -518 125 -538 429 -17 245 114 450 327 510 76 21 190 14
254 -16z"/>
<path d="M3178 8539 c-17 -9 -18 -54 -18 -722 0 -541 3 -716 12 -725 8 -8 53
-12 134 -12 98 0 126 3 138 16 14 13 16 53 16 278 0 190 3 265 12 274 9 9 79
12 254 12 293 0 274 -10 274 147 0 151 16 143 -278 143 -172 0 -241 3 -250 12
-17 17 -17 262 1 276 9 7 119 12 320 14 235 2 309 6 319 16 9 9 13 48 13 133
0 108 -2 122 -19 135 -17 12 -96 14 -465 14 -284 0 -452 -4 -463 -11z"/>
<path d="M4766 8531 c-14 -15 -118 -273 -226 -561 -15 -41 -93 -247 -174 -457
-81 -212 -143 -389 -140 -398 11 -29 42 -35 167 -35 112 0 126 2 143 21 10 11
35 75 56 142 24 79 45 128 59 140 19 15 49 17 285 17 320 0 296 12 348 -165
47 -160 43 -157 213 -153 145 3 158 8 149 58 -2 14 -43 124 -91 245 -48 121
-165 425 -262 675 -108 282 -182 462 -195 473 -17 14 -42 17 -168 17 -131 0
-149 -2 -164 -19z m270 -591 c63 -172 84 -238 77 -249 -8 -13 -38 -16 -168
-19 -161 -3 -185 2 -185 37 0 32 174 491 182 478 4 -8 46 -119 94 -247z"/>
<path d="M4865 6779 c-219 -17 -418 -73 -630 -179 -561 -279 -900 -833 -872
-1425 15 -301 107 -546 320 -848 6 -7 -25 -136 -77 -324 -47 -171 -86 -326
-86 -345 0 -68 64 -128 137 -128 28 0 226 82 537 223 169 76 180 80 210 68 96
-40 238 -85 328 -103 87 -18 138 -22 328 -22 207 0 235 2 351 27 350 75 629
226 880 476 223 224 345 434 417 720 24 98 27 122 27 311 0 191 -2 212 -27
310 -82 312 -224 551 -466 781 -131 125 -249 208 -407 285 -216 106 -398 155
-645 174 -148 11 -177 11 -325 -1z m468 -274 c284 -50 513 -166 719 -364 222
-212 360 -463 404 -731 23 -135 14 -332 -20 -465 -33 -126 -124 -315 -205
-422 -278 -368 -701 -573 -1184 -573 -237 0 -394 34 -569 121 -43 22 -89 39
-103 39 -14 0 -140 -52 -281 -115 -154 -68 -254 -108 -250 -99 7 19 90 311
111 393 9 35 14 74 11 87 -3 12 -25 46 -49 76 -137 169 -230 359 -273 558 -25
116 -25 342 0 460 81 380 352 724 714 904 146 73 346 128 529 146 116 11 336
4 446 -15z"/>
<path d="M4935 6100 c-165 -24 -297 -92 -420 -215 -140 -140 -211 -296 -230
-502 -8 -95 10 -257 40 -352 60 -188 207 -362 376 -444 198 -97 422 -102 624
-12 32 14 62 25 67 25 5 0 44 -34 88 -75 82 -78 114 -94 150 -75 36 19 100 81
116 113 14 26 14 31 -2 55 -10 15 -47 55 -83 89 -63 59 -65 62 -52 85 86 137
106 182 139 303 24 87 23 337 -1 424 -46 166 -103 267 -217 382 -131 132 -274
195 -459 203 -47 2 -109 0 -136 -4z m259 -313 c65 -30 149 -110 190 -180 72
-123 101 -292 72 -427 -14 -66 -61 -180 -74 -180 -3 0 -42 36 -88 80 -113 108
-129 108 -223 -3 -23 -27 -41 -58 -41 -71 0 -14 27 -52 75 -103 l74 -81 -47
-13 c-26 -8 -81 -14 -122 -14 -275 2 -474 321 -405 649 51 241 220 382 446
372 66 -2 100 -9 143 -29z"/>
<path d="M2685 3190 c-62 -25 -93 -116 -61 -178 35 -67 -168 -62 2441 -62
2601 0 2407 -5 2440 60 8 16 15 47 15 70 0 32 -7 48 -34 78 l-34 37 -2374 2
c-1305 1 -2382 -2 -2393 -7z"/>
<path d="M2705 2563 c-82 -21 -120 -117 -75 -190 41 -68 -88 -63 1677 -63
1567 0 1599 0 1630 20 62 37 81 116 43 178 -41 66 70 62 -1672 61 -871 -1
-1592 -4 -1603 -6z"/>
<path d="M2683 1925 c-49 -21 -75 -69 -70 -129 4 -42 10 -55 41 -83 l36 -33
1000 0 1000 0 36 33 c47 43 57 113 24 165 -40 65 9 62 -1062 62 -813 -1 -978
-3 -1005 -15z"/>
</g>
</svg>
